<svg xmlns="http://www.w3.org/2000/svg" version="1.1" xmlns:xlink="http://www.w3.org/1999/xlink" xmlns:svgjs="http://svgjs.com/svgjs" width="512" height="512" x="0" y="0" viewBox="0 0 512.002 512.002" style="enable-background:new 0 0 512 512" xml:space="preserve" class=""><g transform="matrix(-0.9999999999999997,-2.4492935982947054e-16,-2.4492935982947054e-16,0.9999999999999997,511.9451617673037,5.684341886080802e-14)"><path fill="#873f30" d="m210.154 297.417-24.853-24.853L16.119 428.743c-11.18 10.321-11.531 27.869-.772 38.628s28.308 10.408 38.628-.772z" data-original="#873f30" class=""></path><path fill="#6c3328" d="M53.228 467.381c-10.403 10.403-27.379 10.491-37.878-.008a26.53 26.53 0 0 1-6.534-10.675c9.279 3.018 19.866.811 27.186-6.51.257-.257.514-.53.763-.795l156.183-169.186 17.209 17.209L53.974 466.603c-.249.264-.497.529-.746.778z" data-original="#6c3328" class=""></path><path fill="#873f30" d="M234.628 213.677 177.4 281.942l23.378 23.378 68.265-57.228z" data-original="#873f30" class=""></path><path fill="#6c3328" d="m234.628 213.677-18.493 22.059 5.549 5.549c4.084 4.084 4.084 10.706 0 14.79l-35.076 35.076 14.17 14.17 68.265-57.229z" data-original="#6c3328" class=""></path><path fill="#ba5d4f" d="m186.877 318.536-22.694-22.694c-6.561-6.561-6.561-17.198 0-23.759s17.198-6.561 23.759 0l22.694 22.694c6.561 6.561 6.561 17.198 0 23.759s-17.198 6.561-23.759 0z" data-original="#ba5d4f"></path><path fill="#a34f41" d="M210.629 318.536a16.745 16.745 0 0 1-11.872 4.92 16.758 16.758 0 0 1-11.887-4.92l-17.201-17.201a16.707 16.707 0 0 0 11.879 4.912 16.71 16.71 0 0 0 11.88-4.912c6.566-6.566 6.558-17.201 0-23.759l17.201 17.201c6.566 6.566 6.566 17.193 0 23.759z" data-original="#a34f41" class=""></path><path fill="#ba5d4f" d="m264.282 57.65 50.389 50.39-79.11 79.109-50.389-50.39z" data-original="#ba5d4f"></path><path fill="#a34f41" d="m345.934 297.598-50.39-50.39 79.11-79.108 50.39 50.39z" data-original="#a34f41" class=""></path><path fill="#873f30" d="m170.996 154.126-1.75-1.75c-6.637-6.637-6.637-17.399 0-24.036l86.59-86.59c6.637-6.637 17.399-6.637 24.036 0l1.75 1.75c6.637 6.637 6.637 17.399 0 24.036l-86.59 86.59c-6.637 6.638-17.399 6.638-24.036 0z" data-original="#873f30" class=""></path><path fill="#6c3328" d="m328.594 311.724 1.75 1.75c6.637 6.637 17.399 6.637 24.036 0l86.59-86.59c6.637-6.637 6.637-17.399 0-24.036l-1.75-1.75c-6.637-6.637-17.399-6.637-24.036 0l-86.59 86.59c-6.638 6.637-6.638 17.399 0 24.036z" data-original="#6c3328" class=""></path><path fill="#fcc16d" d="m336.54 89.529 56.587 56.587-119.478 119.478-56.587-56.587z" data-original="#fcc16d" class=""></path><path fill="#fca62f" d="m244.969 237.02 119.478-119.479 28.641 28.64-119.479 119.48z" data-original="#fca62f" class=""></path><path fill="#873f30" d="m336.814 87.15-13.864-5.668a12.745 12.745 0 0 0-13.837 2.786l-97.349 97.349a12.746 12.746 0 0 0-2.786 13.837l5.668 13.864c2.298 5.622 9.581 7.088 13.875 2.793l111.086-111.086c4.294-4.294 2.828-11.577-2.793-13.875z" data-original="#873f30" class=""></path><path fill="#6c3328" d="m395.57 145.906 5.668 13.864a12.745 12.745 0 0 1-2.786 13.837l-97.349 97.349a12.746 12.746 0 0 1-13.837 2.786l-13.864-5.668c-5.622-2.298-7.088-9.581-2.793-13.875l111.086-111.086c4.294-4.294 11.577-2.828 13.875 2.793z" data-original="#6c3328" class=""></path><path fill="#ba5d4f" d="M446.89 418.359H240.477v-28.967c0-5.98 4.848-10.828 10.828-10.828h184.757c5.98 0 10.828 4.848 10.828 10.828z" data-original="#ba5d4f"></path><path fill="#a34f41" d="M446.888 389.394v28.965h-22.652v-28.965c0-5.977-4.851-10.828-10.828-10.828h22.652c5.977 0 10.828 4.851 10.828 10.828z" data-original="#a34f41" class=""></path><path fill="#873f30" d="M492.382 475.215H194.986c-7.888 0-13.129-8.165-9.845-15.337l10.513-22.956a55.919 55.919 0 0 1 50.841-32.635h194.376a55.918 55.918 0 0 1 50.841 32.635l10.513 22.956c3.286 7.173-1.955 15.337-9.843 15.337z" data-original="#873f30" class=""></path><path fill="#6c3328" d="M492.387 475.216h-28.954c7.883 0 13.123-8.164 9.843-15.332l-10.514-22.966c-9.106-19.88-28.975-32.635-50.837-32.635h28.943c21.872 0 41.742 12.755 50.848 32.635l10.514 22.966c3.28 7.168-1.96 15.332-9.843 15.332z" data-original="#6c3328" class=""></path><path d="M349.281 91.859a15.963 15.963 0 0 0-9.629-11.651l-13.864-5.668a20.202 20.202 0 0 0-21.979 4.425l-3.811 3.811-11.584-11.584c8.021-9.614 7.532-23.973-1.489-32.994l-1.751-1.751c-9.552-9.55-25.092-9.55-34.643 0l-86.59 86.59c-9.55 9.551-9.55 25.092.001 34.644l1.75 1.749a24.335 24.335 0 0 0 17.322 7.175c5.798 0 11.285-2.004 15.68-5.679l11.577 11.577-3.811 3.811a20.2 20.2 0 0 0-4.424 21.979l5.668 13.863a15.957 15.957 0 0 0 10.56 9.367l-33.378 39.814c-8.71-3.381-18.987-1.576-26.005 5.443-6.815 6.815-8.7 16.697-5.711 25.238L11.031 423.232C4.11 429.621.196 438.326.007 447.743c-.188 9.417 3.376 18.271 10.037 24.932 6.493 6.493 15.071 10.044 24.223 10.043.235 0 .472-.002.708-.007 9.417-.188 18.122-4.103 24.511-11.024l71.178-77.105a7.5 7.5 0 0 0-11.021-10.175l-71.178 77.105c-3.594 3.894-8.491 6.096-13.789 6.202-5.304.097-10.279-1.899-14.025-5.646-3.747-3.747-5.752-8.728-5.646-14.026.106-5.297 2.309-10.194 6.202-13.789l140.803-129.98 16.436 16.436-34.791 37.688a7.5 7.5 0 1 0 11.021 10.174l35.993-38.99a24.307 24.307 0 0 0 8.088 1.375 24.144 24.144 0 0 0 17.183-7.117 24.141 24.141 0 0 0 7.118-17.183c0-3.074-.573-6.058-1.658-8.838l39.798-33.363a15.961 15.961 0 0 0 9.366 10.561l13.864 5.668a20.207 20.207 0 0 0 21.979-4.425l3.811-3.811 11.584 11.584c-8.021 9.614-7.531 23.973 1.49 32.994l1.75 1.75c4.776 4.776 11.047 7.163 17.321 7.163 6.272 0 12.547-2.388 17.322-7.163l86.59-86.59c9.55-9.551 9.55-25.092 0-34.643l-1.75-1.75c-9.021-9.021-23.38-9.51-32.994-1.49l-11.584-11.584 3.811-3.811a20.2 20.2 0 0 0 4.424-21.979l-5.667-13.864a15.965 15.965 0 0 0-11.651-9.629c-.311-.509-41.061-41.266-41.583-41.577zM229.209 231.816l21.695 21.695-38.583 32.345-15.457-15.458zm197.992-28.196c2.537 0 4.921.988 6.715 2.781l1.75 1.75c3.702 3.703 3.702 9.727 0 13.43l-86.59 86.589c-3.703 3.703-9.727 3.703-13.43 0l-1.75-1.75c-3.702-3.703-3.702-9.727 0-13.43l86.59-86.59a9.441 9.441 0 0 1 6.715-2.78zm-26.358 1.212-68.515 68.515-11.504-11.504 68.515-68.515zm-7.694-36.528-97.35 97.35a5.235 5.235 0 0 1-5.696 1.146l-13.864-5.668c-.123-.05-.495-.202-.601-.727s.179-.81.272-.903l111.086-111.086c.08-.079.296-.296.68-.296.069 0 .144.007.224.023a.933.933 0 0 1 .727.601l5.668 13.865a5.233 5.233 0 0 1-1.146 5.695zm-17.856-29.396-108.89 108.89-31.481-31.481 108.89-108.89zm-192.279 12.697a9.43 9.43 0 0 1-6.714-2.782l-.001-.001-1.75-1.749c-3.703-3.703-3.703-9.728 0-13.43l86.59-86.589c1.852-1.852 4.283-2.777 6.715-2.777s4.863.926 6.714 2.776l1.751 1.751c1.793 1.793 2.781 4.178 2.781 6.715s-.988 4.921-2.781 6.715l-86.59 86.59a9.436 9.436 0 0 1-6.715 2.781zm34.052 35.315 53.54-53.54a7.5 7.5 0 0 0 0-10.606 7.5 7.5 0 0 0-10.606 0l-39.122 39.122-11.504-11.504 68.515-68.515 11.504 11.504-4.365 4.365a7.5 7.5 0 0 0 0 10.606 7.5 7.5 0 0 0 10.606 0l18.782-18.782a5.23 5.23 0 0 1 5.696-1.146l13.864 5.668c.123.05.495.202.601.727s-.179.81-.272.903L223.218 206.808c-.094.093-.377.376-.903.272a.931.931 0 0 1-.726-.601l-5.668-13.864a5.233 5.233 0 0 1 1.145-5.695zm-47.579 90.467a9.27 9.27 0 0 1 6.576-2.719c2.381 0 4.763.906 6.576 2.719l22.693 22.694a9.235 9.235 0 0 1 2.724 6.576 9.235 9.235 0 0 1-2.725 6.576 9.235 9.235 0 0 1-6.576 2.724 9.242 9.242 0 0 1-6.576-2.724l-22.693-22.693c-3.625-3.626-3.625-9.527.001-13.153z" fill="#000000" data-original="#000000" class=""></path><path d="M498.532 433.8c-8.382-18.301-24.936-31.329-44.142-35.544v-8.864c0-10.106-8.222-18.328-18.328-18.328H307.568a7.5 7.5 0 0 0 0 15h128.494a3.332 3.332 0 0 1 3.328 3.328v7.396H247.977v-7.396a3.332 3.332 0 0 1 3.328-3.328h20.868a7.5 7.5 0 0 0 0-15h-20.868c-10.106 0-18.328 8.222-18.328 18.328v8.864c-19.205 4.215-35.76 17.243-44.142 35.544l-10.514 22.956c-2.611 5.701-2.147 12.255 1.24 17.532s9.153 8.428 15.424 8.428h297.396a18.25 18.25 0 0 0 15.424-8.428 18.252 18.252 0 0 0 1.24-17.532zm-3.349 32.385c-.367.571-1.219 1.53-2.801 1.53H194.986c-1.582 0-2.434-.959-2.801-1.53-.367-.572-.884-1.745-.225-3.183l10.514-22.956c7.862-17.167 25.142-28.258 44.022-28.258h194.376c18.881 0 36.161 11.092 44.022 28.258l10.514 22.956c.659 1.438.142 2.611-.225 3.183zM476.612 360.635a7.48 7.48 0 0 0 5.288-2.181l8.116-8.068a7.5 7.5 0 0 0-10.575-10.639l-8.116 8.068a7.5 7.5 0 0 0 5.287 12.82zM448.478 323.31l-2.815 11.224a7.5 7.5 0 0 0 5.45 9.099 7.496 7.496 0 0 0 1.831.228 7.503 7.503 0 0 0 7.269-5.677l2.815-11.224a7.5 7.5 0 0 0-5.45-9.099 7.5 7.5 0 0 0-9.1 5.449zM485.972 378.682a7.503 7.503 0 0 0 7.279 5.72c.59 0 1.189-.07 1.788-.217l11.243-2.75a7.5 7.5 0 0 0-3.564-14.57l-11.243 2.75a7.5 7.5 0 0 0-5.503 9.067z" fill="#000000" data-original="#000000" class=""></path></g></svg>