<svg xmlns="http://www.w3.org/2000/svg" version="1.1" xmlns:xlink="http://www.w3.org/1999/xlink" xmlns:svgjs="http://svgjs.com/svgjs" width="512" height="512" x="0" y="0" viewBox="0 0 20 20" style="enable-background:new 0 0 512 512" xml:space="preserve" class=""><g><path d="M10.1 0C4.3 0 0 2.3 0 5v.7C0 6.4.6 6.9 1.3 7h2.6C4.8 7 5.3 5.9 5 5c-.5-.7 0-1.7.8-1.9 2.8-.6 5.6-.6 8.5 0 .9.2 1.3 1.1.8 1.9-.3.9.2 1.9 1.1 2h2.6c.7 0 1.3-.6 1.3-1.3V5c-.1-2.8-4.5-5-10-5z" fill="#000000" data-original="#000000" class=""></path><path d="M15.3 7.5c-.2-.3-.5-.5-.9-.5H13V5.5c0-.3-.2-.5-.5-.5h-1c-.3 0-.5.2-.5.5V7H9V5.5c0-.3-.2-.5-.5-.5h-1c-.3 0-.5.2-.5.5V7H5.6c-.4 0-.7.2-.9.5C3.2 10.1 1 13.4 1 19c0 .5.4 1 1 1h16c.6 0 1-.5 1-1 0-5.6-2.3-9.1-3.7-11.5zM10 18c-2.2 0-4-1.8-4-4s1.8-4 4-4 4 1.8 4 4-1.8 4-4 4z" fill="#000000" data-original="#000000" class=""></path><circle cx="10" cy="14" r="2" fill="#000000" data-original="#000000" class=""></circle></g></svg>