<?xml version="1.0" encoding="utf-8"?>
<!-- Generator: Adobe Illustrator 21.1.0, SVG Export Plug-In . SVG Version: 6.00 Build 0)  -->
<svg version="1.1" id="Layer_1" xmlns="http://www.w3.org/2000/svg" xmlns:xlink="http://www.w3.org/1999/xlink" x="0px" y="0px"
	 viewBox="0 0 405.4 623.8" style="enable-background:new 0 0 405.4 623.8;" xml:space="preserve">
<style type="text/css">
	.st0{fill:#010101;stroke:#231F20;stroke-width:4;stroke-miterlimit:10;}
	.st1{fill:#1C1B2C;}
	.st2{fill:#3E4061;}
	.st3{fill:#1B1B2D;}
	.st4{opacity:0.15;fill:#FFFFFF;enable-background:new    ;}
</style>
<title>cliff</title>
<polygon class="st0" points="117.9,159.1 356.1,139.7 334.1,175.9 356.1,224.9 389,252.8 338,317 372.8,355.7 313.2,400.9 
	320.7,456.2 277.2,490.9 302,520.9 102,609.6 50,578.9 2,625.8 0,155.4 "/>
<path class="st0" d="M259,169.3"/>
<g>
	<path class="st1" d="M251.2,62.2C237.5,67,233.8,81,233.1,92.6c-0.2,4.2-0.1,8.4,0.4,12.5c0.1,0.5-0.3,1-0.8,1.1l0,0
		c-0.4,0.1-0.8-0.1-1-0.5c-2.2-4.1-4-8.4-5.5-12.7c-3.1-9.7-4.2-21,4.3-27c2.4-1.7,5.2-2.6,8.1-2.7L251.2,62.2z M330.5,76.8
		c0,0-2.4,14-8.2,21.2l-2.9,36.9c3.8-0.4,7.2,2.4,7.5,6.3l0.1,0.8l-12,0.9L308.3,97c0,0-0.3-18-0.1-18c0.2-0.1,10-7,10-7L330.5,76.8
		z M270.5,94.6c0,0-1.2,15.2-9,22.8c-3.9,7.3-1.3,15.2,5.5,23.4h0.9c3.2-0.3,6.1,2.1,6.4,5.3l0,0l-9.4,0.7c-1.4,0.1-2.8-0.6-3.5-1.8
		l-11.2-18.8c-1-1.8-1-3.9,0.1-5.5c4-5.9,5.3-13.2,3.6-20.1C252.3,88.6,258.5,87.7,270.5,94.6L270.5,94.6z"/>
	<path class="st2" d="M356.1,19.7c0.1,0.7-0.2,1.3-0.7,1.8l-10.1,9.8c-1.6,1.4-2.4,3.6-2.2,5.7c0,0.9,0.1,1.8,0.1,2.7
		c0.1,12.6-6.5,26.8-13.4,38.2c-11.7,19.3-16.1,19.4-15.7,25.7l1.3,33.8l0.4-0.1c1.5-0.1,3,0.4,4,1.3c1.1,1,1.8,2.3,1.9,3.7
		l-9.8,0.7c-1.9,0.2-3.6-1.1-4-3l-6.1-35.7c-0.8-4.6-4.7-7.9-9.3-8c-11.4-0.4-22.7-1.6-33.9-3.6h-0.1
		c-15.2,27.2-18.6,24.8-21.4,30.3c-3,5.7-0.3,10.1,0.9,20l0.5-0.1c3.6-0.3,6.9,2.4,7.2,6l-8.7,0.7c-2.1,0.2-4.1-1.1-4.7-3.3
		l-5.4-21.7c-0.6-2.7,0.2-5.6,2.3-7.4l5.5-4.9c2.5-9.4,2.1-19.3-0.7-28.6c-3.9-12.1,2.7-24.9,14.6-28.9c0.5-0.2,1-0.3,1.5-0.5
		c0.8-0.3,1.5-0.4,2.3-0.6c2.5-0.6,5.1-0.8,7.7-0.8c17.2,0,37.7-2.8,48.6-15.9c-0.8-0.1-1.5-0.4-2.2-0.7c-1.3-0.5-2.2-1.4-2.5-2.7
		l3.9-2.7l12.2-8.4c4.8-5.5,9.3-8.8,13.3-8.2l7.1-8.2c0.1-0.1,0.1-0.2,0.2-0.2c1.3-1.2,3.4-1.2,4.7,0.1c0.3,0.3,0.6,0.6,0.7,1v0.1
		c0.1,0.2,0.2,0.5,0.2,0.7l0.9,7.9l3.3,2.3l2.8-0.6c1.2-0.3,2.5,0.4,2.8,1.7C356.1,19.5,356.1,19.6,356.1,19.7L356.1,19.7z"/>
	<path class="st1" d="M259.3,53.2c-1.9,0.3-4,0.8-5.8,1.4c-12,4-18.5,16.8-14.6,28.9c2.9,9.3,3.2,19.2,0.7,28.6l-5.5,4.9
		c-2.1,1.9-3,4.7-2.3,7.4l5.4,21.7c0.6,2,2.5,3.5,4.7,3.3l-4.9,0.4c-2.1,0.2-4.1-1.1-4.7-3.3l-5.4-21.7c-0.6-2.7,0.2-5.6,2.3-7.4
		l5.5-4.9c2.5-9.4,2.1-19.3-0.7-28.6c-3.9-12.1,2.7-24.9,14.6-28.9c0.5-0.2,1-0.3,1.5-0.5C253.1,53.6,256.2,53.2,259.3,53.2z
		 M350.5,18.3c-1.4,2.9-7.3,1.5-7.3,1.5c-0.4-3.5,3.1-10.6,3.1-10.6l0.9,6.8L350.5,18.3z M308.7,37.3c3.6,0.2,6.9,0.2,9.9-1.3
		c1-0.5,1.9-1.2,2.7-2C319.3,38.8,312.8,39.4,308.7,37.3z"/>
	<path class="st1" d="M346.4,9.3c-2,1-4.4,0.1-5.4-1.8c-0.2-0.4-0.4-0.8-0.4-1.3C342,5,344,5,345.3,6.3c0.3,0.3,0.6,0.6,0.7,1v0.1
		c0.1,0.2,0.2,0.5,0.2,0.7L346.4,9.3L346.4,9.3z M258.5,92.7c-0.6-9.8-2.4-13.7-5.6-19.1C258.9,78.1,260.6,86.8,258.5,92.7
		L258.5,92.7z M332.5,16.5c-0.1,2-1.6,3.7-3.5,4.1c0.1-1,0.5-1.9,1.1-2.6C330.6,17.2,331.6,16.7,332.5,16.5L332.5,16.5z"/>
	<path class="st3" d="M301.9,104.3c-0.8-4.6-4.7-7.9-9.3-8c-11.4-0.4-22.7-1.6-33.9-3.6h-0.1c0,0,5-11.3,25.8-7.6
		C305.2,88.9,301.9,104.3,301.9,104.3z M343.2,39.6c0.1,12.6-6.5,26.8-13.4,38.2c-0.9-1.7-1.5-3.5-2-5.3c-1.6-6.8-0.8-14,2.4-20.3
		c1.7-3.2,4-6.1,6.7-8.5C338.4,42.5,341,40.2,343.2,39.6L343.2,39.6z"/>
	<path class="st4" d="M305.7,40.5c-1,5.1-2.7,10.3-5,15c-3.4,6.3-9.1,11.8-16.2,12.8c-6.4,0.8-12.6-1.9-18-5.4c-4.6-3-9-6.5-13.9-9
		c2.5-0.6,5.1-0.8,7.7-0.8C280.7,53.3,296.2,49.2,305.7,40.5L305.7,40.5z"/>
</g>
</svg>
