<svg xmlns="http://www.w3.org/2000/svg" version="1.1" xmlns:xlink="http://www.w3.org/1999/xlink" xmlns:svgjs="http://svgjs.com/svgjs" width="512" height="512" x="0" y="0" viewBox="0 0 48 48" style="enable-background:new 0 0 512 512" xml:space="preserve" class=""><g transform="matrix(-1,0,0,1,47.99650694290176,0)"><g data-name="23-wolf"><path d="M38.954 10.258C38.451 6.023 33.97.602 33.77.359A1 1 0 0 0 32.005.9l-.893 8.923a16.072 16.072 0 0 0-1.132-.116C29.765 5.41 24.919.504 24.707.293a1 1 0 0 0-1.703.616l-.97 10.663a10.092 10.092 0 0 0-2.48 2.33l-7.62-1.385A2.406 2.406 0 0 0 12 12a3 3 0 1 0-4 2.816V20a1 1 0 0 0 1.555.832l2.168-1.445 1.445 2.168a1 1 0 0 0 1.539.152L16 20.414l1.293 1.293a1 1 0 0 0 1.414 0L20 20.414l1.293 1.293a1 1 0 0 0 1.414 0l.928-.928 1.135 2.84-1.382.921-.493-.987a1 1 0 0 0-1.602-.26L20 24.586l-1.293-1.293a1 1 0 0 0-1.414 0L16 24.586l-1.293-1.293a1 1 0 0 0-1.414 0L12 24.586l-1.293-1.293a1 1 0 0 0-1.688.903l1 5a1 1 0 0 0 .857.796l8.805 1.1L17.2 34.4a1 1 0 0 0 .995 1.58l2.433-.486L19.2 37.4a1 1 0 0 0 1.043 1.57l1.89-.473-.742 1.484c-7.414-.198-10.142-3.9-10.493-4.431A5.997 5.997 0 0 0 5 32a4.82 4.82 0 0 0-5 5 1 1 0 0 0 1.243.97l1.89-.473-1.028 2.056a1 1 0 0 0 1.138 1.417L6 40.28V42a1.153 1.153 0 0 0 .416.812.89.89 0 0 0 .9.136l3-1a1 1 0 1 0-.632-1.896L8 40.612V39a1 1 0 0 0-1.243-.97l-1.89.473 1.028-2.056a1 1 0 0 0-1.138-1.417l-2.479.62A2.678 2.678 0 0 1 5 34c3.188 0 4.02 2.23 4.051 2.316a1.024 1.024 0 0 0 .087.192c.133.223 3.345 5.491 12.86 5.492H22c9.643 0 11.94-7.648 11.962-7.726a1 1 0 0 0-1.924-.548c-.016.058-1.634 5.396-8.369 6.172l1.226-2.45a1 1 0 0 0-1.138-1.418l-1.267.317L23.8 34.6a1 1 0 0 0-.996-1.58l-2.433.486s1.506-2.057 1.538-2.135l4.967.621a1.014 1.014 0 0 0 .53-.078l9-4a1 1 0 0 0 .149-1.746l-1.686-1.123 3.646-2.188a1 1 0 0 0-.068-1.752l-2.008-1.003 2.932-1.173a1 1 0 0 0-.742-1.858l-5 2a1 1 0 0 0-.076 1.824l2.37 1.185-3.438 2.063a1 1 0 0 0-.04 1.689l1.489.992-7.086 3.15-15.009-1.877-.235-1.179a.998.998 0 0 0 1.103-.211L14 25.414l1.293 1.293a1 1 0 0 0 1.414 0L18 25.414l1.293 1.293a1 1 0 0 0 1.414 0l1.02-1.018.378.758a1 1 0 0 0 1.45.385l3-2a1 1 0 0 0 .374-1.203l-2-5a1 1 0 0 0-1.636-.336L22 19.586l-1.293-1.293a1 1 0 0 0-1.414 0L18 19.586l-1.293-1.293a1 1 0 0 0-1.414 0l-1.138 1.138-1.323-1.986a1 1 0 0 0-1.387-.277L10 18.132v-2.736a1 1 0 0 1 1.18-.984l8.641 1.571a.988.988 0 0 0 1.011-.428 8.543 8.543 0 0 1 .587-.765c.046.034 4.134 2.105 4.134 2.105a1 1 0 0 0 .894-1.79l-3.479-1.74c3.689-2.593 8.546-1.456 8.79-1.394a1.002 1.002 0 0 0 1.237-.871l.745-7.454C35.23 5.796 37 8.86 37 11a1.007 1.007 0 0 0 .776.975C38.112 12.054 46 14.092 46 29v18a1 1 0 0 0 2 0V29c0-14.093-6.754-17.868-9.046-18.742ZM9 11a1 1 0 1 1-1 1 1.001 1.001 0 0 1 1-1Zm15.786-7.604c1.402 1.744 3.034 4.25 3.185 6.302a13.002 13.002 0 0 0-3.829.786Z" fill="#000000" data-original="#000000" class=""></path><path d="m32.553 13.105-4 2a1 1 0 0 0-.448 1.342.98.98 0 0 0 1.342.448l4-2a1 1 0 0 0-.894-1.79ZM35.274 39.038a1.006 1.006 0 0 0-1.236.688C34.021 39.788 32.151 46 24 46c-5.867 0-8.97-2.2-10.297-3.51a1 1 0 1 0-1.406 1.421C13.843 45.438 17.418 48 24 48c9.643 0 11.94-7.648 11.962-7.726a1.001 1.001 0 0 0-.688-1.236Z" fill="#000000" data-original="#000000" class=""></path></g></g></svg>