<svg xmlns="http://www.w3.org/2000/svg" version="1.1" xmlns:xlink="http://www.w3.org/1999/xlink" xmlns:svgjs="http://svgjs.com/svgjs" width="512" height="512" x="0" y="0" viewBox="0 0 48 48" style="enable-background:new 0 0 512 512" xml:space="preserve" class=""><g><path d="M42.52 34.63c0-2.78 5.48-6.1 5.48-9.86 0-4.43-2.89-6.58-5.81-9.5L40.75 7.1a3.18 3.18 0 0 0-3.69-2.58c-1.31.23-1.08.78-1.19.12a3.19 3.19 0 0 0-6.32.36 3.19 3.19 0 0 0-3.9 3.65l.35 2a3.2 3.2 0 0 0-2 .86 3.2 3.2 0 0 0-2-.86l.35-2A3.19 3.19 0 0 0 18.45 5a3.19 3.19 0 0 0-6.32-.37c-.11.64.11.11-1.2-.12a3.23 3.23 0 0 0-3.69 2.6l-1.43 8.16C2.9 18.18 0 20.33 0 24.77c0 3.74 5.48 7.1 5.48 9.86 0 .75-.39 3-3 10a1 1 0 0 0 1.88.7c4.34-11.52 3.94-11.78.18-16.29C3.27 27.58 2 26.05 2 24.77A7.39 7.39 0 0 1 3.9 20c3.94-3.94 3.76-3.83 3.86-3.77a2.77 2.77 0 0 1 1 3.33c-1.11 2.78-1.29 2.95-1 3.49.51.94 2.05.22 5 2.43a10.67 10.67 0 0 1 3 3.63 1 1 0 0 0 1.78-.9A12.4 12.4 0 0 0 10 21.89l.63-1.59c1.14-2.9-.86-5.78-2.63-6.05l1.21-6.78A1.21 1.21 0 0 1 11.37 7c.37.53.27.42-.69 5.87a1 1 0 0 0 2 .35L14.1 5a1.19 1.19 0 0 1 2.35.42L14.54 16.2a1 1 0 0 0 1.12 1.15c1-.13.78-.38 2.38-9.45a1.19 1.19 0 0 1 2.34.42L18.33 20a1 1 0 0 0 2 .35l1.35-7.64A1.19 1.19 0 0 1 23 13.82v14.61c0 6.26-4.09 5.86-5.31 16.46a1 1 0 1 0 2 .22A22 22 0 0 1 23 35.3c1.75-2.53.33-2.53 2.08 0a22 22 0 0 1 3.29 9.81 1 1 0 0 0 2-.22C29.08 34.22 25 34.74 25 28.43V13.82a1.19 1.19 0 0 1 1.35-1.16l1.35 7.64a1 1 0 0 0 2-.35L27.62 8.32A1.19 1.19 0 0 1 30 7.9l1.53 8.65a1 1 0 0 0 2-.35L31.55 5.4A1.19 1.19 0 0 1 33.9 5l1.44 8.22a1 1 0 0 0 2-.35c-1-5.46-1.06-5.34-.69-5.87a1.21 1.21 0 0 1 2.16.47L40 14.26c-1.77.26-3.77 3.13-2.63 6l.63 1.63a12.42 12.42 0 0 0-7.51 6.33 1 1 0 0 0 1.78.9 10.54 10.54 0 0 1 3-3.62c3-2.25 4.44-1.5 5-2.44.29-.54.11-.69-1-3.48a2.76 2.76 0 0 1 1-3.33c.1-.07-.15-.27 3.87 3.75A7.46 7.46 0 0 1 46 24.77c0 1.28-1.27 2.81-2.51 4.29-3.84 4.61-4.06 5 .18 16.29a1 1 0 0 0 1.88-.7c-2.64-6.98-3.03-9.27-3.03-10.02Z" data-name="Pray open hand" fill="#000000" data-original="#000000" class=""></path></g></svg>