<svg xmlns="http://www.w3.org/2000/svg" version="1.1" xmlns:xlink="http://www.w3.org/1999/xlink" xmlns:svgjs="http://svgjs.com/svgjs" width="512" height="512" x="0" y="0" viewBox="0 0 340 340" style="enable-background:new 0 0 512 512" xml:space="preserve" class=""><g><linearGradient id="a" x1="9.749" x2="375.758" y1="369.147" y2="-100.255" gradientUnits="userSpaceOnUse"><stop stop-opacity="1" stop-color="#93332e" offset="0.005141368360294122"></stop><stop stop-opacity="1" stop-color="#ffc088" offset="1"></stop></linearGradient><linearGradient id="b" x1="312.7" x2="301.231" y1="10.793" y2="52.846" gradientUnits="userSpaceOnUse"><stop offset="0" stop-color="#6b6b98"></stop><stop offset="1" stop-color="#3c3c6b"></stop></linearGradient><linearGradient id="c" x1="112.698" x2="193.042" y1="272.215" y2="163.005" gradientUnits="userSpaceOnUse"><stop stop-opacity="1" stop-color="#a12b4b" offset="0"></stop><stop stop-opacity="1" stop-color="#80625e" offset="1"></stop></linearGradient><path fill="url(#a)" d="m295.081 26.09 25.357 15.41 1.2 18.009a22.5 22.5 0 0 1-3.9 14.236l-42.174 61.385a242.135 242.135 0 0 1 43.8-3.114 2.542 2.542 0 0 1 2.464 2.908 72.921 72.921 0 0 1-8.725 24.8l-38.448 42.555a25.164 25.164 0 0 0-6.454 15.358c-.638 10.572-1.981 28.361-4.287 39.6 0 0-16.057 34.793-38.1 60.5a1.994 1.994 0 0 1-3.5-1.21c-.334-7.418-1.264-21.593-3.708-31.675 0 0-43.42 23.58-78.775 38.646a2 2 0 0 1-2.776-1.843v-28.17s-40.631 10.472-95.48 13.256a1.993 1.993 0 0 1-2.07-2.32c1.669-9.765 8.844-47.17 25.924-81.7a298.325 298.325 0 0 1-40 8.607 2 2 0 0 1-2.089-2.814c4.539-9.8 18.906-39.713 35.617-63.18 0 0-21.878-16.114-40.065-30.713a1.994 1.994 0 0 1 .461-3.391c8.253-3.525 31.623-13.295 49.1-18.538l-14-15.072a2 2 0 0 1 1.337-3.356 410.138 410.138 0 0 1 54.841.595A52.624 52.624 0 0 0 139.9 88.6l24.056-13.164a25 25 0 0 1 11.3-3.06l48.419-1.364a22.12 22.12 0 0 0 11.325-3.5z" data-original="url(#a)" class=""></path><path fill="url(#b)" d="M308.3 16.91c-8.1 3.2-17.663 8.489-21.477 31.268a4.551 4.551 0 0 0 5.3 5.229c7.3-1.316 19.6-4.515 28.317-11.909 0 0 1.8-10.663-1.517-19.888a8.127 8.127 0 0 0-10.623-4.7z" data-original="url(#b)"></path><path fill="#ffffff" d="M196.112 104.808a105.643 105.643 0 0 0-18.132-.419 15.6 15.6 0 0 0-6.666 2.034c-10.9 6.32-22.11 16.331-22.11 16.331a124.5 124.5 0 0 0 25.849 1.206 17.136 17.136 0 0 0 9.521-3.464 33.6 33.6 0 0 0 3.364-2.947l-.02.032c11.041-8.431 16.22-5.385 18.465-2.338a1.056 1.056 0 0 0 1.918-.619c-.201-10.33-12.189-9.816-12.189-9.816z" data-original="#ffffff" class=""></path><path fill="url(#c)" d="M134.94 170.745a164.685 164.685 0 0 0-14.923 30.574 1.271 1.271 0 0 0 1.364 1.7l13.662-1.855a1.268 1.268 0 0 1 1.388 1.619 302.9 302.9 0 0 0-8.368 37.962 1.273 1.273 0 0 0 1.278 1.474c7.671-.168 43.25-1.64 77.986-14.53a1.268 1.268 0 0 1 1.253 2.161 144.622 144.622 0 0 1-100.4 32.542 1.273 1.273 0 0 1-1.195-1.392 179.434 179.434 0 0 1 7.3-35.22 1.27 1.27 0 0 0-1.441-1.637l-23.993 4.5a1.267 1.267 0 0 1-1.458-1.584c2.088-7.4 11.735-34.546 45.744-58.033a1.273 1.273 0 0 1 1.803 1.719z" data-original="url(#c)" class=""></path></g></svg>