<svg xmlns="http://www.w3.org/2000/svg" version="1.1" xmlns:xlink="http://www.w3.org/1999/xlink" xmlns:svgjs="http://svgjs.com/svgjs" width="512" height="512" x="0" y="0" viewBox="0 0 52 52" style="enable-background:new 0 0 512 512" xml:space="preserve" class=""><g><path fill="#312e4b" d="M12.473 19.549c-4.81 1.32-6.49 6.14-7.01 10.2-.23 1.72-.25 3.29-.22 4.42.01.36-.47.47-.61.14-.48-1.16-1.11-2.83-1.53-4.65-.81-3.49-.89-7.51 2.18-9.38.84-.53 1.85-.73 2.84-.73h4.35zM39.265 26.867s-1.2 4.843-3.36 7.22l-1.963 12.919a2.422 2.422 0 0 1 2.421 2.422v.288H32.24l-1.09-16.358s.352-6.32.433-6.374c.081-.054 3.625-2.215 3.625-2.215zM18.233 31.504s-.802 5.31-3.665 7.796c-1.538 2.463-.851 5.298 1.27 8.372h.314c1.129 0 2.044.915 2.044 2.044h-3.22c-.497 0-.95-.285-1.167-.733l-3.346-6.927a1.899 1.899 0 0 1 .2-1.95c1.586-2.168 2.165-4.495 1.773-6.975-.304-4.248 1.874-4.382 5.797-1.627z" data-original="#312e4b" class=""></path><path fill="#5b5e8b" d="M49.573 7.439a.8.8 0 0 1-.28.61l-3.73 3.18c-.57.48-.91 1.18-.91 1.93 0 .31-.01.63-.03.95-.31 4.45-2.92 9.25-5.58 13.09-4.502 6.497-6.006 6.39-6.09 8.64l-.45 11.95h.14c.53 0 1.01.22 1.36.57.34.35.56.83.56 1.36h-3.37c-.67 0-1.23-.51-1.29-1.18l-1.15-12.75a3.37 3.37 0 0 0-3.01-3.05c-5.5-.55-11.19-2.12-11.54-2.21l-.02-.01c-5.955 9.178-7.044 8.257-8.15 10.1-1.19 1.952-.382 3.542-.23 7.07h.16c.64 0 1.21.26 1.63.68.42.42.68.99.68 1.63h-3c-.75 0-1.39-.54-1.52-1.28l-1.29-7.78c-.16-.97.22-1.95 1-2.55l2.02-1.58c1.05-3.32 1.28-6.68.51-10.09-.96-4.31 1.5-8.72 5.78-9.78.18-.05.36-.09.55-.13.27-.06.55-.1.82-.13.87-.12 1.76-.13 2.63-.05 5.92.485 13 .063 17.08-4.25-.28-.1-.52-.2-.73-.33-.47-.27-.75-.61-.81-1.02l1.39-.83 4.41-2.63c1.79-1.83 3.42-2.84 4.77-2.54l2.64-2.69a.7.7 0 0 1 .09-.07 1.14 1.14 0 0 1 1.82.55l.01.03c.02.09.04.18.04.26l.13 2.79 1.06.9.98-.15c.48-.08.92.3.92.79z" data-original="#5b5e8b" class=""></path><path fill="#312e4b" d="M15.483 16.609a10.598 10.598 0 0 0-2.02.33c-4.28 1.06-6.74 5.47-5.78 9.78.77 3.41.54 6.77-.51 10.09l-2.02 1.58c-.78.6-1.16 1.58-1 2.55l1.29 7.78c.13.74.77 1.28 1.52 1.28h-1.69c-.75 0-1.39-.54-1.52-1.28l-1.29-7.78c-.16-.97.22-1.95 1-2.55l2.02-1.58c1.05-3.32 1.28-6.68.51-10.09-.96-4.31 1.5-8.72 5.78-9.78.18-.05.36-.09.55-.13 1.04-.21 2.1-.27 3.16-.2zM47.672 6.802c-.562.99-2.532.332-2.532.332C45.1 5.877 46.5 3.487 46.5 3.487l.117 2.411zM32.85 12.376c1.233.164 2.345.259 3.425-.19.352-.147.655-.381.98-.637-.806 1.63-3.076 1.688-4.405.827z" data-original="#312e4b" class=""></path><path fill="#312e4b" d="M46.501 3.509a1.384 1.384 0 0 1-1.893-1.245 1.146 1.146 0 0 1 1.828.558l.005.026c.026.086.038.177.043.263l.017.398zM14.187 30.517c.054-3.452-.46-4.888-1.402-6.882 1.904 1.756 2.251 4.859 1.402 6.882zM41.54 5.656s-.074.525-.444.895c-.368.367-.895.443-.895.443s.078-.525.445-.893c.37-.37.893-.445.893-.445z" data-original="#312e4b" class=""></path><path fill="#deddff" d="M28.753 35.789a3.37 3.37 0 0 0-3.01-3.05c-5.5-.55-11.19-2.12-11.54-2.21l-.02-.01s2.02-3.84 9.05-1.97c7.03 1.88 5.52 7.24 5.52 7.24zM44.623 14.109c-.31 4.45-2.92 9.25-5.58 13.09-.26-.62-.43-1.28-.53-1.94-.37-2.42.09-4.97 1.35-7.08a9.799 9.799 0 0 1 2.53-2.8c.5-.38 1.45-1.13 2.23-1.27z" data-original="#deddff"></path><path fill="#ffffff" d="M31.723 13.419c-.55 1.79-1.15 3.57-2.11 5.15-1.31 2.14-3.43 3.92-5.9 4.07-2.19.13-4.28-1.03-6.04-2.39-1.52-1.18-2.93-2.54-4.53-3.57.87-.12 1.76-.13 2.63-.05 7.07.58 12.45-.42 15.95-3.21z" opacity=".15" data-original="#ffffff"></path></g></svg>